<?xml version="1.0" encoding="iso-8859-1"?>
<!-- Generator: Adobe Illustrator 19.0.0, SVG Export Plug-In . SVG Version: 6.00 Build 0)  -->
<svg  version="1.1" id="Layer_1" xmlns="http://www.w3.org/2000/svg" xmlns:xlink="http://www.w3.org/1999/xlink" x="0px" y="0px"
	 viewBox="0 0 508 508" style="enable-background:new 0 0 508 508;" xml:space="preserve">
<g>
	<g>
		<path   d="M388.5,28.8h-73.4V14.1C315.1,6.3,308.8,0,301,0h-94c-7.8,0-14.1,6.3-14.1,14.1v14.7h-73.4c-23.7,0-42.9,19.3-42.9,42.9
			v393.4c0,23.7,19.3,42.9,42.9,42.9h269c23.7,0,42.9-19.3,42.9-42.9V71.7C431.4,48,412.2,28.8,388.5,28.8z M221.1,28.2h65.8v29.4
			h-65.8V28.2z M403.2,465.1c0,8.1-6.6,14.7-14.7,14.7h-269c-8.1,0-14.7-6.6-14.7-14.7V71.7c0-8.1,6.6-14.7,14.7-14.7h73.4v14.7
			c0,7.8,6.3,14.1,14.1,14.1h94c7.8,0,14.1-6.3,14.1-14.1V57h73.4c8.1,0,14.7,6.6,14.7,14.7V465.1z"/>
	</g>
</g>
<g>
	<g>
		<path  d="M359.7,414.9H148.3c-7.8,0-14.1,6.3-14.1,14.1c0,7.8,6.3,14.1,14.1,14.1h211.3c7.8,0,14.1-6.3,14.1-14.1
			C373.7,421.2,367.5,414.9,359.7,414.9z"/>
	</g>
</g>
<g>
	<g>
		<path  d="M359.7,342.9H148.3c-7.8,0-14.1,6.3-14.1,14.1c0,7.8,6.3,14.1,14.1,14.1h211.3c7.8,0,14.1-6.3,14.1-14.1
			C373.8,349.3,367.5,342.9,359.7,342.9z"/>
	</g>
</g>
<g>
	<g>
		<path  d="M316.5,126.2H191.6c-7.8,0-14.1,6.3-14.1,14.1v144.3c-0.1,7.8,6.3,14.1,14.1,14.1h124.9c7.8,0,14.1-6.3,14.1-14.1V140.3
			C330.6,132.5,324.3,126.2,316.5,126.2z M302.4,270.5h-96.7V154.4h96.7V270.5z"/>
	</g>
</g>
<g>
</g>
<g>
</g>
<g>
</g>
<g>
</g>
<g>
</g>
<g>
</g>
<g>
</g>
<g>
</g>
<g>
</g>
<g>
</g>
<g>
</g>
<g>
</g>
<g>
</g>
<g>
</g>
<g>
</g>
</svg>
